<?xml version="1.0" encoding="UTF-8" standalone="no"?>
<!-- Created with Inkscape (http://www.inkscape.org/) -->

<svg
        xmlns:inkscape="http://www.inkscape.org/namespaces/inkscape"
        xmlns:sodipodi="http://sodipodi.sourceforge.net/DTD/sodipodi-0.dtd"
        width="64.029167mm"
        height="95.779167mm"
        viewBox="0 0 64.029167 95.779167"
        version="1.1"
        id="svg2036"
        inkscape:version="1.1 (c68e22c387, 2021-05-23)"
        sodipodi:docname="RED0.svg"
        xmlns="http://www.w3.org/2000/svg"
>
    <sodipodi:namedview
            id="namedview2038"
            pagecolor="#ffffff"
            bordercolor="#666666"
            borderopacity="1.0"
            inkscape:pageshadow="2"
            inkscape:pageopacity="0.0"
            inkscape:pagecheckerboard="0"
            inkscape:document-units="mm"
            showgrid="false"
            fit-margin-top="0"
            fit-margin-left="0"
            fit-margin-right="0"
            fit-margin-bottom="0"
            inkscape:zoom="0.77771465"
            inkscape:cx="-306.66775"
            inkscape:cy="187.72952"
            inkscape:window-width="2400"
            inkscape:window-height="1284"
            inkscape:window-x="-9"
            inkscape:window-y="427"
            inkscape:window-maximized="1"
            inkscape:current-layer="layer1"/>
    <defs
            id="defs2033"/>
    <g
            inkscape:label="Ebene 1"
            inkscape:groupmode="layer"
            id="layer1"
            transform="translate(-64.263767,-98.739282)">
        <g
                transform="matrix(1.0583333,0,0,1.0583333,64.52835,-252.7461)"
                id="g6555">
            <rect
                    width="60"
                    height="90"
                    rx="10"
                    ry="10"
                    x="0"
                    y="332.36218"
                    id="rect2987-1"
                    style="fill:#ffffff;fill-opacity:1;fill-rule:evenodd;stroke:#000000;stroke-width:0.5;stroke-miterlimit:4;stroke-dasharray:none"/>
            <rect
                    width="50"
                    height="80"
                    rx="5"
                    ry="5"
                    x="5"
                    y="337.36218"
                    id="rect3757-5"
                    style="fill:#ff5555;fill-opacity:1;fill-rule:evenodd;stroke:none"/>
            <path
                    d="m 45,352.36216 c -22.09139,0 -40,17.90861 -40,40 0,5.52285 4.47715,10 10,10 22.09139,0 40,-17.90861 40,-40 0,-5.52285 -4.47715,-10 -10,-10 z"
                    id="path3773-0-4-8-4-2"
                    style="fill:#ffffff;fill-opacity:1;fill-rule:evenodd;stroke:none"/>
            <path
                    d="m 30,362.36217 c -5.52285,0 -10,4.47715 -10,10 v 10 c 0,5.52285 4.47715,10 10,10 5.52285,0 10,-4.47715 10,-10 v -10 c 0,-5.52285 -4.47715,-10 -10,-10 z m 0,5 c 2.76142,0 5,2.23858 5,5 v 10 c 0,2.76142 -2.23858,5 -5,5 -2.76142,0 -5,-2.23858 -5,-5 v -10 c 0,-2.76142 2.23858,-5 5,-5 z"
                    id="path3962-7"
                    style="fill:#ff5555;fill-opacity:1;fill-rule:evenodd;stroke:none"/>
            <path
                    d="m 12.5,339.86217 c -2.76143,0 -5,2.23857 -5,5 v 5 c 0,2.76143 2.23857,5 5,5 2.76142,0 5,-2.23857 5,-5 v -5 c 0,-2.76143 -2.23858,-5 -5,-5 z m 0,2.5 c 1.38071,0 2.5,1.11929 2.5,2.5 v 5 c 0,1.38071 -1.11929,2.5 -2.5,2.5 -1.38071,0 -2.5,-1.11929 -2.5,-2.5 v -5 c 0,-1.38071 1.11929,-2.5 2.5,-2.5 z"
                    id="path3962-7-1"
                    style="fill:#ffffff;fill-opacity:1;fill-rule:evenodd;stroke:none"/>
            <path
                    d="m 47.5,399.86217 c -2.76143,0 -5,2.23857 -5,5 v 5 c 0,2.76143 2.23857,5 5,5 2.76142,0 5,-2.23857 5,-5 v -5 c 0,-2.76143 -2.23858,-5 -5,-5 z m 0,2.5 c 1.38071,0 2.5,1.11929 2.5,2.5 v 5 c 0,1.38071 -1.11929,2.5 -2.5,2.5 -1.38071,0 -2.5,-1.11929 -2.5,-2.5 v -5 c 0,-1.38071 1.11929,-2.5 2.5,-2.5 z"
                    id="path3962-7-1-2"
                    style="fill:#ffffff;fill-opacity:1;fill-rule:evenodd;stroke:none"/>
        </g>
    </g>
</svg>
