<?xml version="1.0" encoding="UTF-8" standalone="no"?>
<!-- Created with Inkscape (http://www.inkscape.org/) -->

<svg
        xmlns:inkscape="http://www.inkscape.org/namespaces/inkscape"
        xmlns:sodipodi="http://sodipodi.sourceforge.net/DTD/sodipodi-0.dtd"
        width="64.029167mm"
        height="95.779167mm"
        viewBox="0 0 64.029167 95.779167"
        version="1.1"
        id="svg2585"
        inkscape:version="1.1 (c68e22c387, 2021-05-23)"
        sodipodi:docname="RED7.svg"
        xmlns="http://www.w3.org/2000/svg"
>
    <sodipodi:namedview
            id="namedview2587"
            pagecolor="#ffffff"
            bordercolor="#666666"
            borderopacity="1.0"
            inkscape:pageshadow="2"
            inkscape:pageopacity="0.0"
            inkscape:pagecheckerboard="0"
            inkscape:document-units="mm"
            showgrid="false"
            fit-margin-top="0"
            fit-margin-left="0"
            fit-margin-right="0"
            fit-margin-bottom="0"
            inkscape:zoom="0.77771465"
            inkscape:cx="-140.79714"
            inkscape:cy="309.23939"
            inkscape:window-width="2560"
            inkscape:window-height="1373"
            inkscape:window-x="2391"
            inkscape:window-y="-9"
            inkscape:window-maximized="1"
            inkscape:current-layer="layer1"/>
    <defs
            id="defs2582"/>
    <g
            inkscape:label="Ebene 1"
            inkscape:groupmode="layer"
            id="layer1"
            transform="translate(-20.377163,-66.759902)">
        <g
                transform="matrix(1.0583333,0,0,1.0583333,-423.85824,-284.72548)"
                id="g6611">
            <rect
                    width="60"
                    height="90"
                    rx="10"
                    ry="10"
                    x="420"
                    y="332.36218"
                    id="rect2987-4"
                    style="fill:#ffffff;fill-opacity:1;fill-rule:evenodd;stroke:#000000;stroke-width:0.5;stroke-miterlimit:4;stroke-dasharray:none"/>
            <rect
                    width="50"
                    height="80"
                    rx="5"
                    ry="5"
                    x="425"
                    y="337.36218"
                    id="rect3757-2"
                    style="fill:#ff5555;fill-opacity:1;fill-rule:evenodd;stroke:none"/>
            <path
                    d="m 465,352.36215 c -22.09139,0 -40,17.90861 -40,40 0,5.52285 4.47715,10 10,10 22.09139,0 40,-17.90861 40,-40 0,-5.52285 -4.47715,-10 -10,-10 z"
                    id="path3773-0-4-8-4-3"
                    style="fill:#ffffff;fill-opacity:1;fill-rule:evenodd;stroke:none"/>
            <path
                    d="m 441.5,362.36217 v 10 h 5 v -5 h 10 l -10,25 h 5 l 10,-25 v -5 h -15 z"
                    id="rect4014"
                    style="fill:#ff5555;fill-opacity:1;fill-rule:evenodd;stroke:none"/>
            <path
                    d="m 427.5,339.86217 v 5 h 2.5 v -2.5 h 5 l -5,12.5 h 2.5 l 5,-12.5 v -2.5 H 430 Z"
                    id="rect4014-3"
                    style="fill:#ffffff;fill-opacity:1;fill-rule:evenodd;stroke:none"/>
            <path
                    d="m 472.5,414.86217 v -5 H 470 v 2.5 h -5 l 5,-12.5 h -2.5 l -5,12.5 v 2.5 h 7.5 z"
                    id="rect4014-3-3"
                    style="fill:#ffffff;fill-opacity:1;fill-rule:evenodd;stroke:none"/>
        </g>
    </g>
</svg>
