<?xml version="1.0" encoding="UTF-8" standalone="no"?>
<!-- Created with Inkscape (http://www.inkscape.org/) -->

<svg
		xmlns:inkscape="http://www.inkscape.org/namespaces/inkscape"
		xmlns:sodipodi="http://sodipodi.sourceforge.net/DTD/sodipodi-0.dtd"
		width="64.029167mm"
		height="95.779167mm"
		viewBox="0 0 64.029167 95.779167"
		version="1.1"
		id="svg1004"
		inkscape:version="1.1 (c68e22c387, 2021-05-23)"
		sodipodi:docname="WILD.svg"
		xmlns="http://www.w3.org/2000/svg"
>
	<sodipodi:namedview
			id="namedview1006"
			pagecolor="#ffffff"
			bordercolor="#666666"
			borderopacity="1.0"
			inkscape:pageshadow="2"
			inkscape:pageopacity="0.0"
			inkscape:pagecheckerboard="0"
			inkscape:document-units="mm"
			showgrid="false"
			fit-margin-top="0"
			fit-margin-left="0"
			fit-margin-right="0"
			fit-margin-bottom="0"
			inkscape:zoom="0.77771465"
			inkscape:cx="-514.97037"
			inkscape:cy="257.80664"
			inkscape:window-width="2560"
			inkscape:window-height="1373"
			inkscape:window-x="2391"
			inkscape:window-y="-9"
			inkscape:window-maximized="1"
			inkscape:current-layer="layer1"/>
	<defs
			id="defs1001"/>
	<g
			inkscape:label="Ebene 1"
			inkscape:groupmode="layer"
			id="layer1"
			transform="translate(-119.37717,-80.368149)">
		<g
				transform="matrix(0.26458333,0,0,0.26458333,-372.48324,278.44522)"
				id="g9888-0-5">
			<rect
					width="240"
					height="360"
					rx="40"
					ry="40"
					x="1860"
					y="-747.63776"
					id="rect2987-8-5-81-2-4-9"
					style="fill:#ffffff;fill-opacity:1;fill-rule:evenodd;stroke:#000000;stroke-width:2;stroke-miterlimit:4;stroke-dasharray:none"/>
			<rect
					width="200"
					height="320"
					rx="20"
					ry="20"
					x="1880"
					y="-727.63776"
					id="rect3757-26-33-5-9-0-0"
					style="fill:#000000;fill-opacity:1;fill-rule:evenodd;stroke:none"/>
			<path
					d="m 2040,-667.63782 c -88.3656,0 -160,71.63444 -160,160 0,22.0914 17.9086,40 40,40 88.3656,0 160,-71.63444 160,-160 0,-22.0914 -17.9086,-40 -40,-40 z"
					id="path3773-0-4-8-4-60-3-86-5-7-5"
					style="fill:#ffffff;fill-opacity:1;fill-rule:evenodd;stroke:none"/>
			<path
					d="m 1891.75,-567.63782 c -7.5127,18.54188 -11.75,38.76336 -11.75,60 0,22.0914 17.9086,40 40,40 l 60,-100 z"
					id="path3773-0-4-8-8-7-9-0-9-1"
					style="fill:#ffaa00;fill-opacity:1;fill-rule:evenodd;stroke:none"/>
			<path
					d="m 1980,-567.63782 -60,100 c 67.1289,0 124.5024,-41.38924 148.25,-100 z"
					id="path3773-0-4-8-8-5-6-5-0-08-2"
					style="fill:#00aa00;fill-opacity:1;fill-rule:evenodd;stroke:none"/>
			<path
					d="m 2040,-667.63782 c -67.1289,0 -124.5024,41.38924 -148.25,100 H 1980 Z"
					id="path3773-0-4-8-8-1-4-3-1-0"
					style="fill:#ff5555;fill-opacity:1;fill-rule:evenodd;stroke:none"/>
			<path
					d="m 2040,-667.63782 -60,100 h 88.25 c 7.5127,-18.54188 11.75,-38.76336 11.75,-60 0,-22.0914 -17.9086,-40 -40,-40 z"
					id="path3773-0-4-8-8-5-8-3-9-4-9"
					style="fill:#5555ff;fill-opacity:1;fill-rule:evenodd;stroke:none"/>
			<path
					d="m 1892.9375,-692.63797 c -1.8782,4.63547 -2.9375,9.69084 -2.9375,15 0,5.52285 4.4772,10 10,10 l 15,-25 z"
					id="path3773-0-4-8-8-7-9-5-7-0-8"
					style="fill:#ffaa00;fill-opacity:1;fill-rule:evenodd;stroke:none"/>
			<path
					d="m 1915,-692.63797 -15,25 c 16.7822,0 31.1256,-10.34731 37.0625,-25 z"
					id="path3773-0-4-8-8-5-6-5-08-9-79-9"
					style="fill:#00aa00;fill-opacity:1;fill-rule:evenodd;stroke:none"/>
			<path
					d="m 1930,-717.63797 c -16.7822,0 -31.1256,10.34731 -37.0625,25 H 1915 Z"
					id="path3773-0-4-8-8-1-4-39-9-5-1"
					style="fill:#ff5555;fill-opacity:1;fill-rule:evenodd;stroke:none"/>
			<path
					d="m 1930,-717.63797 -15,25 h 22.0625 c 1.8782,-4.63547 2.9375,-9.69084 2.9375,-15 0,-5.52285 -4.4772,-10 -10,-10 z"
					id="path3773-0-4-8-8-5-8-3-3-7-38-7"
					style="fill:#5555ff;fill-opacity:1;fill-rule:evenodd;stroke:none"/>
			<path
					d="m 2022.9375,-442.63797 c -1.8782,4.63547 -2.9375,9.69084 -2.9375,15 0,5.52285 4.4772,10 10,10 l 15,-25 z"
					id="path3773-0-4-8-8-7-9-5-3-2-3"
					style="fill:#ffaa00;fill-opacity:1;fill-rule:evenodd;stroke:none"/>
			<path
					d="m 2045,-442.63797 -15,25 c 16.7822,0 31.1256,-10.34731 37.0625,-25 z"
					id="path3773-0-4-8-8-5-6-5-08-5-3-3"
					style="fill:#00aa00;fill-opacity:1;fill-rule:evenodd;stroke:none"/>
			<path
					d="m 2060,-467.63797 c -16.7822,0 -31.1256,10.34731 -37.0625,25 H 2045 Z"
					id="path3773-0-4-8-8-1-4-39-7-2-0"
					style="fill:#ff5555;fill-opacity:1;fill-rule:evenodd;stroke:none"/>
			<path
					d="m 2060,-467.63797 -15,25 h 22.0625 c 1.8782,-4.63547 2.9375,-9.69084 2.9375,-15 0,-5.52285 -4.4772,-10 -10,-10 z"
					id="path3773-0-4-8-8-5-8-3-3-6-1-7"
					style="fill:#5555ff;fill-opacity:1;fill-rule:evenodd;stroke:none"/>
			<path
					d="m 2040,-667.63787 c -67.1289,0 -124.5024,41.38924 -148.25,100 -7.5127,18.54188 -11.75,38.76336 -11.75,60 0,22.0914 17.9086,40 40,40 67.1289,0 124.5024,-41.38924 148.25,-100 7.5127,-18.54188 11.75,-38.76336 11.75,-60 0,-22.0914 -17.9086,-40 -40,-40 z"
					id="path3773-0-4-8-8-7-9-0-03-8-0-6"
					style="fill:none;stroke:#ffffff;stroke-width:4;stroke-miterlimit:4;stroke-dasharray:none"/>
			<path
					d="m 1930,-717.63787 c -16.7822,0 -31.1256,10.34731 -37.0625,25 -1.8782,4.63547 -2.9375,9.69084 -2.9375,15 0,5.52285 4.4772,10 10,10 16.7822,0 31.1256,-10.34731 37.0625,-25 1.8782,-4.63547 2.9375,-9.69084 2.9375,-15 0,-5.52285 -4.4772,-10 -10,-10 z"
					id="path3773-0-4-8-8-7-9-0-03-8-9-4-6"
					style="fill:none;stroke:#ffffff;stroke-width:4;stroke-miterlimit:4;stroke-dasharray:none"/>
			<path
					d="m 2060,-467.63787 c -16.7822,0 -31.1256,10.34731 -37.0625,25 -1.8782,4.63547 -2.9375,9.69084 -2.9375,15 0,5.52285 4.4772,10 10,10 16.7822,0 31.1256,-10.34731 37.0625,-25 1.8782,-4.63547 2.9375,-9.69084 2.9375,-15 0,-5.52285 -4.4772,-10 -10,-10 z"
					id="path3773-0-4-8-8-7-9-0-03-8-9-5-07-0"
					style="fill:none;stroke:#ffffff;stroke-width:4;stroke-miterlimit:4;stroke-dasharray:none"/>
		</g>
	</g>
</svg>
